<svg width="70" height="71" viewBox="0 0 70 71" fill="none" xmlns="http://www.w3.org/2000/svg">
<g clip-path="url(#clip0_253_1980)">
<path d="M62.1533 0.536133H22.8333C21.1183 0.536133 19.4736 1.21747 18.2608 2.43011L4.1557 16.5353C2.94305 17.7479 2.26172 19.3928 2.26172 21.1078V64.9496C2.26172 68.0222 4.77568 70.536 7.84813 70.536H62.155C65.2266 70.536 67.7397 68.0229 67.7397 64.9512V6.12254C67.7397 3.05009 65.2258 0.536133 62.1533 0.536133Z" fill="url(#paint0_linear_253_1980)"/>
<path d="M62.1537 0.536133H22.8337C21.1187 0.536133 19.4739 1.21747 18.2612 2.43011L4.15609 16.5354C3.25639 17.4351 2.64999 18.5729 2.39648 19.8005L53.1321 70.5361H62.1553C65.227 70.5361 67.7401 68.023 67.7401 64.9514V6.12254C67.7401 3.05009 65.2261 0.536133 62.1537 0.536133Z" fill="url(#paint1_linear_253_1980)"/>
<path d="M2.45372 19.5389C2.43299 19.6287 2.41392 19.7161 2.39648 19.8004H19.5078C20.7195 19.8004 21.7017 18.8182 21.7017 17.6065V0.637939C21.568 0.661685 21.4274 0.689685 21.2825 0.721665C20.0068 1.00372 18.8439 1.65967 17.9202 2.58339L4.31229 16.1913C3.39227 17.1113 2.74607 18.2712 2.45372 19.5389Z" fill="url(#paint2_linear_253_1980)"/>
<path d="M2.26172 59.5316V64.9498C2.26172 68.0224 4.77568 70.5362 7.84813 70.5362H62.155C65.2266 70.5362 67.7397 68.023 67.7397 64.9514V59.5315H2.26172V59.5316Z" fill="url(#paint3_linear_253_1980)"/>
<path d="M67.7391 64.9514V60.3451L29.0265 21.6326C28.3 20.4012 26.5058 20.0752 24.6754 20.0752C22.612 20.0752 20.8682 20.563 20.3746 22.1331L12.031 49.4962C11.9863 49.6756 11.9414 49.8551 11.9414 49.9896C11.9414 50.7308 12.1772 51.3821 12.9134 51.8763L31.5733 70.5361H62.1543C65.226 70.5361 67.7391 68.023 67.7391 64.9514Z" fill="url(#paint4_linear_253_1980)"/>
<path d="M67.7404 64.9514V45.709L56.4571 34.4259C54.858 32.5013 52.1667 31.4768 48.107 31.4768C44.7875 31.4768 40.7109 32.6825 40.7109 34.7907C40.7109 36.1049 40.9711 37.5675 41.9923 38.0666L44.999 41.1137C41.5569 41.8703 39.5449 43.5679 39.5449 47.3059C39.5449 49.6045 40.1096 51.2061 41.3955 52.1669L59.7646 70.5361H62.1556C65.2272 70.5361 67.7404 68.023 67.7404 64.9514Z" fill="url(#paint5_linear_253_1980)"/>
<path d="M11.668 49.9896C11.668 49.8551 11.7129 49.6756 11.7576 49.4962L20.1012 22.133C20.5948 20.563 22.6134 19.8005 24.6766 19.8005C26.7401 19.8005 28.7587 20.5631 29.252 22.133L37.6404 49.4962C37.6853 49.6756 37.7301 49.8551 37.7301 49.9896C37.7301 51.6493 35.1733 52.8604 33.2444 52.8604C32.1228 52.8604 31.2258 52.5015 30.9567 51.5595L29.4315 45.9524H19.9665L18.4415 51.5597C18.1723 52.5017 17.2752 52.8606 16.1537 52.8606C14.2248 52.8604 11.668 51.6493 11.668 49.9896ZM27.9513 40.5694L24.6766 28.5477L21.402 40.5694H27.9513Z" fill="url(#paint6_linear_253_1980)"/>
<path d="M58.334 39.9943V50.6704C58.334 51.8815 56.8986 52.8235 54.9248 52.8235C53.1754 52.8235 51.8296 51.8815 51.8296 50.6704V49.6835C50.2147 51.5676 48.1513 53.2722 45.0113 53.2722C41.9161 53.2722 39.2695 51.3881 39.2695 47.3061C39.2695 42.013 43.5759 40.5326 49.766 40.5326H51.3809V40.0841C51.3809 38.5589 50.5736 36.7645 48.0167 36.7645C44.3382 36.7645 43.9794 38.2448 42.7682 38.2448C41.2431 38.2448 40.4355 36.4058 40.4355 34.7908C40.4355 32.6826 44.7868 31.2021 48.1063 31.2021C55.4631 31.2021 58.334 35.4636 58.334 39.9943ZM51.3809 43.8967H51.2014C48.6446 43.8967 46.2672 44.1659 46.2672 46.3191C46.2672 47.6199 46.9849 48.2031 48.0167 48.2031C49.4072 48.2031 51.3809 46.364 51.3809 44.0762V43.8967Z" fill="url(#paint7_linear_253_1980)"/>
</g>
<defs>
<linearGradient id="paint0_linear_253_1980" x1="14.5736" y1="15.109" x2="57.8633" y2="58.3987" gradientUnits="userSpaceOnUse">
<stop stop-color="#C7E9FF"/>
<stop offset="1" stop-color="#7ACBFF"/>
</linearGradient>
<linearGradient id="paint1_linear_253_1980" x1="42.2162" y1="18.9572" x2="3.25982" y2="-19.9991" gradientUnits="userSpaceOnUse">
<stop stop-color="#7ACBFF" stop-opacity="0"/>
<stop offset="1" stop-color="#2F73A0"/>
</linearGradient>
<linearGradient id="paint2_linear_253_1980" x1="10.2103" y1="8.38035" x2="21.4433" y2="19.6134" gradientUnits="userSpaceOnUse">
<stop stop-color="#C7E9FF"/>
<stop offset="1" stop-color="#7ACBFF"/>
</linearGradient>
<linearGradient id="paint3_linear_253_1980" x1="35.0007" y1="62.4228" x2="35.0007" y2="71.1124" gradientUnits="userSpaceOnUse">
<stop stop-color="#7ACBFF" stop-opacity="0"/>
<stop offset="1" stop-color="#2F73A0"/>
</linearGradient>
<linearGradient id="paint4_linear_253_1980" x1="50.3328" y1="66.1014" x2="-2.96036" y2="12.8082" gradientUnits="userSpaceOnUse">
<stop stop-color="#7ACBFF" stop-opacity="0"/>
<stop offset="1" stop-color="#2F73A0"/>
</linearGradient>
<linearGradient id="paint5_linear_253_1980" x1="64.7661" y1="59.1455" x2="32.4471" y2="26.8265" gradientUnits="userSpaceOnUse">
<stop stop-color="#7ACBFF" stop-opacity="0"/>
<stop offset="1" stop-color="#2F73A0"/>
</linearGradient>
<linearGradient id="paint6_linear_253_1980" x1="18.2025" y1="33.9816" x2="34.297" y2="50.0761" gradientUnits="userSpaceOnUse">
<stop stop-color="#2F73A0"/>
<stop offset="1" stop-color="#174461"/>
</linearGradient>
<linearGradient id="paint7_linear_253_1980" x1="43.4303" y1="37.8123" x2="54.5825" y2="48.9646" gradientUnits="userSpaceOnUse">
<stop stop-color="white"/>
<stop offset="1" stop-color="#C7E9FF"/>
</linearGradient>
<clipPath id="clip0_253_1980">
<rect width="70" height="70" fill="white" transform="translate(0 0.536133)"/>
</clipPath>
</defs>
</svg>
