<svg width="70" height="71" viewBox="0 0 70 71" fill="none" xmlns="http://www.w3.org/2000/svg">
<g clip-path="url(#clip0_253_1892)">
<path fill-rule="evenodd" clip-rule="evenodd" d="M70 15.4998L35.9003 12.0435L0 15.4998V52.0282L36.3874 55.4847L70 52.0282V15.4998Z" fill="#F4EAFA"/>
<path fill-rule="evenodd" clip-rule="evenodd" d="M70 52.0283H0V67.7936C0 69.2511 1.19369 70.4457 2.65904 70.4457H67.3411C68.8023 70.4457 70.0001 69.2511 70.0001 67.7936L70 52.0283Z" fill="#99E6FC"/>
<path fill-rule="evenodd" clip-rule="evenodd" d="M70.0006 15.4998L63.1895 14.811V15.4998V52.0282V52.729L70.0006 52.0282V15.4998Z" fill="#D2CFE9"/>
<path fill-rule="evenodd" clip-rule="evenodd" d="M69.9995 52.0283H63.1883V67.7936C63.1883 69.2511 61.9905 70.4457 60.5293 70.4457H67.3405C68.8017 70.4457 69.9995 69.2511 69.9995 67.7936V52.0283Z" fill="#62DBFB"/>
<path fill-rule="evenodd" clip-rule="evenodd" d="M67.341 0.626709H2.65904C1.19369 0.626709 0 1.81726 0 3.27878V15.5001H70V3.27878C70 1.81726 68.8022 0.626709 67.341 0.626709Z" fill="#025F80"/>
<path fill-rule="evenodd" clip-rule="evenodd" d="M69.9995 15.4999V3.27878C69.9995 1.81739 68.8017 0.626709 67.3405 0.626709H60.5293C61.9905 0.626709 63.1883 1.81739 63.1883 3.27878V15.5001L69.9995 15.4999Z" fill="#024C67"/>
<path fill-rule="evenodd" clip-rule="evenodd" d="M12.2164 8.06145C12.2164 6.64777 11.0627 5.50098 9.64529 5.50098C8.22793 5.50098 7.07812 6.64777 7.07812 8.06145C7.07812 9.47908 8.22793 10.626 9.64529 10.626C11.0627 10.626 12.2164 9.47908 12.2164 8.06145Z" fill="#6FD7A3"/>
<path fill-rule="evenodd" clip-rule="evenodd" d="M22.0738 8.06145C22.0738 6.64777 20.924 5.50098 19.5067 5.50098C18.0854 5.50098 16.9355 6.64777 16.9355 8.06145C16.9355 9.47908 18.0854 10.626 19.5067 10.626C20.924 10.6259 22.0738 9.47908 22.0738 8.06145Z" fill="#FDB441"/>
<path fill-rule="evenodd" clip-rule="evenodd" d="M29.364 5.50073C27.9467 5.50073 26.7969 6.64753 26.7969 8.0612C26.7969 9.47884 27.9467 10.6258 29.364 10.6258C30.7854 10.6258 31.9352 9.47897 31.9352 8.0612C31.9352 6.64767 30.7854 5.50073 29.364 5.50073Z" fill="#F07281"/>
<path d="M19.5079 59.221H7.19105C6.60768 59.221 6.13477 58.7481 6.13477 58.1647C6.13477 57.5813 6.60768 57.1084 7.19105 57.1084H19.5079C20.0913 57.1084 20.5642 57.5813 20.5642 58.1647C20.5642 58.7481 20.0913 59.221 19.5079 59.221Z" fill="#024C67"/>
<path d="M19.5079 65.3616H7.19105C6.60768 65.3616 6.13477 64.8887 6.13477 64.3053C6.13477 63.7219 6.60768 63.249 7.19105 63.249H19.5079C20.0913 63.249 20.5642 63.7219 20.5642 64.3053C20.5642 64.8887 20.0913 65.3616 19.5079 65.3616Z" fill="#024C67"/>
<path d="M62.8065 59.221H50.4938C49.9104 59.221 49.4375 58.7481 49.4375 58.1647C49.4375 57.5813 49.9104 57.1084 50.4938 57.1084H62.8065C63.3899 57.1084 63.8628 57.5813 63.8628 58.1647C63.8628 58.7481 63.3899 59.221 62.8065 59.221Z" fill="#024C67"/>
<path d="M62.8065 65.3616H50.4938C49.9104 65.3616 49.4375 64.8887 49.4375 64.3053C49.4375 63.7219 49.9104 63.249 50.4938 63.249H62.8065C63.3899 63.249 63.8628 63.7219 63.8628 64.3053C63.8628 64.8887 63.3899 65.3616 62.8065 65.3616Z" fill="#024C67"/>
<path d="M41.1542 59.221H28.8414C28.2581 59.221 27.7852 58.7481 27.7852 58.1647C27.7852 57.5813 28.2581 57.1084 28.8414 57.1084H41.1542C41.7376 57.1084 42.2105 57.5813 42.2105 58.1647C42.2105 58.7481 41.7376 59.221 41.1542 59.221Z" fill="#024C67"/>
<path d="M41.1542 65.3616H28.8414C28.2581 65.3616 27.7852 64.8887 27.7852 64.3053C27.7852 63.7219 28.2581 63.249 28.8414 63.249H41.1542C41.7376 63.249 42.2105 63.7219 42.2105 64.3053C42.2105 64.8887 41.7376 65.3616 41.1542 65.3616Z" fill="#024C67"/>
</g>
<defs>
<clipPath id="clip0_253_1892">
<rect width="70" height="70" fill="white" transform="translate(0 0.536133)"/>
</clipPath>
</defs>
</svg>
