<svg width="70" height="71" viewBox="0 0 70 71" fill="none" xmlns="http://www.w3.org/2000/svg">
<g clip-path="url(#clip0_232_500)">
<path d="M62.9595 63.5076C70.3219 56.1452 70.3219 44.2083 62.9595 36.8459C55.597 29.4834 43.6601 29.4834 36.2977 36.8459C28.9352 44.2083 28.9352 56.1452 36.2977 63.5076C43.6601 70.8701 55.597 70.8701 62.9595 63.5076Z" fill="#2AD45A"/>
<path fill-rule="evenodd" clip-rule="evenodd" d="M52.5483 9.65234C53.7393 9.65234 54.7107 10.6236 54.7107 11.8146V32.0117C53.0971 31.5622 51.3966 31.321 49.6396 31.321C48.7776 31.321 47.9295 31.3801 47.0983 31.4921V9.65234H52.5483ZM49.6396 69.0322H11.2776C10.0866 69.0322 9.11523 68.0609 9.11523 66.87V61.4198H34.502C37.9387 66.0393 43.4394 69.0322 49.6396 69.0322Z" fill="#A8B4DB"/>
<path fill-rule="evenodd" clip-rule="evenodd" d="M1.50195 59.2577V16.2986C2.00904 15.0696 3.22187 14.1987 4.6283 14.1987H11.499C12.6896 14.1987 13.6608 13.2276 13.6608 12.0368V5.16639C13.6608 3.75996 14.5317 2.54713 15.7606 2.04004H44.935C46.126 2.04004 47.0974 3.01143 47.0974 4.20225V31.4921C37.8858 32.7333 30.7831 40.6249 30.7831 50.1767C30.7831 54.3902 32.1656 58.2805 34.5011 61.4199H3.6643C2.47334 61.4199 1.50195 60.4486 1.50195 59.2577Z" fill="#D2DBFA"/>
<path fill-rule="evenodd" clip-rule="evenodd" d="M12.5144 3.02947C13.1721 2.37158 13.9729 2.04004 14.9031 2.04004H15.7606C14.5317 2.54713 13.6608 3.75982 13.6608 5.16639V12.0371C13.6608 13.2277 12.6896 14.199 11.499 14.199H4.6283C3.22201 14.199 2.00904 15.0697 1.50195 16.2988V15.4413C1.50195 14.511 1.83363 13.7104 2.49139 13.0526L12.5144 3.02947Z" fill="#A8B4DB"/>
<path fill-rule="evenodd" clip-rule="evenodd" d="M65.0463 41.326C65.2477 41.676 65.6167 41.8715 65.9925 41.8715C66.1805 41.8715 66.3684 41.8236 66.5428 41.7227C67.0596 41.419 67.2408 40.7506 66.9321 40.2268L66.8984 40.1682C66.5964 39.646 65.9253 39.4695 65.4086 39.7715C64.8851 40.0752 64.704 40.7453 65.0127 41.2674L65.0463 41.326ZM40.5644 67.9383C37.994 66.6205 35.7458 64.7611 33.9741 62.5133H10.2102V66.8693C10.2102 67.4586 10.6867 67.9383 11.2773 67.9383H40.5644ZM3.66697 60.326H32.4707C30.7057 57.3508 29.6923 53.8809 29.6923 50.1773C29.6923 40.4182 36.7323 32.274 46.0069 30.5608V4.20156C46.0069 3.61354 45.5237 3.13352 44.9398 3.13352H16.0019C15.2435 3.52467 14.7536 4.30246 14.7536 5.1668V12.0368C14.7536 13.832 13.2973 15.2922 11.4988 15.2922H4.6333C3.7676 15.2922 2.98912 15.7762 2.59988 16.5377V59.2582C2.59988 59.846 3.07635 60.326 3.66697 60.326ZM3.93549 13.1606L12.6262 4.46816C12.586 4.69662 12.5657 4.93014 12.5657 5.1668V12.0368C12.5657 12.626 12.0893 13.1046 11.4986 13.1046H4.6333C4.39172 13.1046 4.16367 13.1237 3.93549 13.1606ZM48.1949 10.7462V30.2805C48.6714 30.2465 49.1545 30.2273 49.6378 30.2273C50.9935 30.2273 52.3223 30.3597 53.6174 30.6211V11.8139C53.6174 11.2247 53.141 10.7462 52.5504 10.7462H48.1949ZM69.5897 50.1773C69.5897 61.1765 60.6371 70.126 49.6377 70.126H11.2773C9.48545 70.126 8.02242 68.6658 8.02242 66.8693V62.5133H3.66697C1.86844 62.5133 0.412109 61.0532 0.412109 59.2582V15.4409C0.412109 14.2282 0.861777 13.1359 1.72078 12.2786L11.7404 2.25564C12.5994 1.39869 13.6932 0.946289 14.908 0.946289H44.94C46.7319 0.946289 48.1949 2.40658 48.1949 4.20156V8.55879H52.5504C54.3422 8.55879 55.8052 10.0189 55.8052 11.8138V31.1923C58.8453 32.177 61.6237 33.8914 63.9256 36.2536C64.3484 36.6859 64.3417 37.3791 63.9055 37.8001C63.4761 38.2227 62.7848 38.213 62.362 37.7809C58.9863 34.3206 54.4697 32.4147 49.6378 32.4147C39.8464 32.4147 31.8804 40.3828 31.8804 50.1772C31.8804 59.9716 39.833 67.9274 49.6177 67.9382H49.6378C59.4359 67.9382 67.402 59.9704 67.402 50.1772C67.402 48.5393 67.1805 46.9163 66.7377 45.3551C66.5766 44.7739 66.9188 44.1696 67.496 44.0056C68.0798 43.8428 68.6839 44.1821 68.8449 44.763C69.3415 46.5174 69.5899 48.3382 69.5899 50.1772L69.5897 50.1773ZM8.40496 38.9363C7.80094 38.9363 7.31107 38.4469 7.31107 37.8426C7.31107 37.2383 7.80107 36.7486 8.40496 36.7486H15.351C15.955 36.7486 16.4448 37.2396 16.4448 37.8426C16.4448 38.4455 15.955 38.9363 15.351 38.9363H8.40496ZM8.40496 45.0832C7.80094 45.0832 7.31107 44.5938 7.31107 43.9895C7.31107 43.3852 7.80107 42.8956 8.40496 42.8956H17.3306C17.9347 42.8956 18.4245 43.385 18.4245 43.9895C18.4245 44.5939 17.9347 45.0832 17.3306 45.0832H8.40496ZM8.40496 26.6453C7.80094 26.6453 7.31107 26.1544 7.31107 25.5514C7.31107 24.9485 7.80107 24.4577 8.40496 24.4577H33.7392C34.3364 24.4577 34.8331 24.9471 34.8331 25.5514C34.8331 26.1557 34.3364 26.6453 33.7392 26.6453H8.40496ZM8.40496 32.7907C7.80094 32.7907 7.31107 32.3012 7.31107 31.6969C7.31107 31.0926 7.80107 30.6032 8.40496 30.6032H11.9282C12.5322 30.6032 13.0221 31.0926 13.0221 31.6969C13.0221 32.3012 12.5322 32.7907 11.9282 32.7907H8.40496ZM27.3301 36.7486C27.9341 36.7486 28.424 37.2396 28.424 37.8426C28.424 38.4455 27.934 38.9363 27.3301 38.9363H23.243C22.639 38.9363 22.1492 38.4469 22.1492 37.8426C22.1492 37.2383 22.639 36.7486 23.243 36.7486H27.3301ZM8.40496 20.4984C7.80094 20.4984 7.31107 20.009 7.31107 19.4044C7.31107 18.7998 7.80107 18.3107 8.40496 18.3107H26.6121C27.2228 18.3107 27.706 18.8001 27.706 19.4044C27.706 20.0087 27.2228 20.4984 26.6121 20.4984H8.40496ZM11.9282 49.0411C12.5322 49.0411 13.0221 49.5319 13.0221 50.1348C13.0221 50.7378 12.5322 51.2286 11.9282 51.2286H8.40496C7.80094 51.2286 7.31107 50.7391 7.31107 50.1348C7.31107 49.5305 7.80107 49.0411 8.40496 49.0411H11.9282ZM24.7665 42.8956C25.3705 42.8956 25.8604 43.385 25.8604 43.9895C25.8604 44.5939 25.3705 45.0832 24.7665 45.0832H20.5721C19.9681 45.0832 19.4782 44.5938 19.4782 43.9895C19.4782 43.3852 19.9681 42.8956 20.5721 42.8956H24.7665ZM23.6659 49.0411C24.2699 49.0411 24.7598 49.5319 24.7598 50.1348C24.7598 50.7378 24.2698 51.2286 23.6659 51.2286H15.1765C14.5658 51.2286 14.0826 50.7391 14.0826 50.1348C14.0826 49.5305 14.5658 49.0411 15.1765 49.0411H23.6659ZM19.5788 14.4171C18.9748 14.4171 18.485 13.9276 18.485 13.3233C18.485 12.719 18.9748 12.2296 19.5788 12.2296H29.0885C29.6925 12.2296 30.1823 12.7202 30.1823 13.3233C30.1823 13.9264 29.6925 14.4171 29.0885 14.4171H19.5788ZM18.5923 36.7486H20.0016C20.6056 36.7486 21.0955 37.2396 21.0955 37.8426C21.0955 38.4455 20.6055 38.9363 20.0016 38.9363H18.5923C17.9883 38.9363 17.4984 38.4469 17.4984 37.8426C17.4984 37.2383 17.9883 36.7486 18.5923 36.7486ZM31.3836 30.6033C31.9876 30.6033 32.4774 31.0928 32.4774 31.6971C32.4774 32.3014 31.9876 32.7908 31.3836 32.7908H15.1764C14.5656 32.7908 14.0825 32.3014 14.0825 31.6971C14.0825 31.0928 14.5656 30.6033 15.1764 30.6033H31.3836ZM40.2019 24.4577C40.8059 24.4577 41.2958 24.9471 41.2958 25.5514C41.2958 26.1557 40.8059 26.6453 40.2019 26.6453H36.9805C36.3765 26.6453 35.8867 26.1544 35.8867 25.5514C35.8867 24.9485 36.3765 24.4577 36.9805 24.4577H40.2019ZM40.2019 18.3108C40.8059 18.3108 41.2958 18.8003 41.2958 19.4046C41.2958 20.0088 40.8059 20.4986 40.2019 20.4986H33.162C32.558 20.4986 32.0748 20.0091 32.0748 19.4046C32.0748 18.8 32.558 18.3108 33.162 18.3108H40.2019ZM32.3299 14.4171C31.7259 14.4171 31.236 13.9276 31.236 13.3233C31.236 12.719 31.726 12.2296 32.3299 12.2296H33.7392C34.3432 12.2296 34.8331 12.7202 34.8331 13.3233C34.8331 13.9264 34.3432 14.4171 33.7392 14.4171H32.3299ZM29.8602 18.3108H29.9207C30.5247 18.3108 31.0146 18.8003 31.0146 19.4046C31.0146 20.0088 30.5247 20.4986 29.9207 20.4986H29.8602C29.2562 20.4986 28.7663 20.0091 28.7663 19.4046C28.7663 18.8 29.2562 18.3108 29.8602 18.3108ZM36.9874 14.4171C36.3834 14.4171 35.8935 13.9276 35.8935 13.3233C35.8935 12.719 36.3834 12.2296 36.9874 12.2296H40.2021C40.8061 12.2296 41.2959 12.7202 41.2959 13.3233C41.2959 13.9264 40.8061 14.4171 40.2021 14.4171H36.9874ZM49.2552 53.9766C48.8323 53.5488 48.8323 52.857 49.2552 52.4288L50.4162 51.2696H41.1952C40.5912 51.2696 40.1013 50.7801 40.1013 50.1758C40.1013 49.5715 40.5913 49.082 41.1952 49.082H50.4162L49.2552 47.9241C48.8323 47.4963 48.8323 46.8044 49.2552 46.3763C49.6846 45.9497 50.3758 45.9497 50.8054 46.3763L53.8321 49.4034C54.255 49.8299 54.255 50.523 53.8321 50.9495L50.8054 53.9766C50.5906 54.19 50.3088 54.2967 50.0336 54.2967C49.7517 54.2967 49.4699 54.19 49.2552 53.9766ZM51.2953 58.9219C51.2953 59.5262 51.7853 60.0156 52.3892 60.0156H55.3487C57.4627 60.0156 59.1807 58.2986 59.1807 56.1875V44.1658C59.1807 42.055 57.4627 40.338 55.3487 40.338H52.3892C51.7851 40.338 51.2953 40.8274 51.2953 41.4316C51.2953 42.0357 51.7853 42.5253 52.3892 42.5253H55.3487C56.2547 42.5253 56.9929 43.2609 56.9929 44.1658V56.1875C56.9929 57.0927 56.2547 57.8283 55.3487 57.8283H52.3892C51.7851 57.8283 51.2953 58.3177 51.2953 58.922V58.9219Z" fill="black"/>
</g>
<defs>
<clipPath id="clip0_232_500">
<rect width="70" height="70" fill="white" transform="translate(0 0.536133)"/>
</clipPath>
</defs>
</svg>
