<svg width="70" height="71" viewBox="0 0 70 71" fill="none" xmlns="http://www.w3.org/2000/svg">
<path d="M31.6446 53.9795V49.5305H41.9082V53.9795C41.9082 56.7568 42.7303 59.472 44.271 61.7828C44.5738 62.2372 44.2482 62.8457 43.7023 62.8457H29.8507C29.3047 62.8457 28.9791 62.2372 29.282 61.7828C30.8225 59.472 31.6446 56.7568 31.6446 53.9795Z" fill="#00516A"/>
<path d="M44.271 61.783C42.7303 59.472 41.9082 56.7569 41.9082 53.9795V49.5305H37.8066V53.9795C37.8066 56.7568 38.6287 59.472 40.1694 61.7828C40.4722 62.2372 40.1466 62.8456 39.6007 62.8456H43.7022C44.2483 62.8457 44.5739 62.2372 44.271 61.783Z" fill="#004651"/>
<path d="M64.873 44.1152H5.12695V11.3027C5.12695 9.03744 6.96322 7.20117 9.22852 7.20117H60.7715C63.0368 7.20117 64.873 9.03744 64.873 11.3027V44.1152Z" fill="#00516A"/>
<path d="M60.7715 7.20117H56.6699C58.9352 7.20117 60.7715 9.03744 60.7715 11.3027V44.1152H64.873V11.3027C64.873 9.03744 63.0368 7.20117 60.7715 7.20117Z" fill="#004651"/>
<path d="M9.22852 44.1152V11.8496C9.22852 11.5476 9.47338 11.3027 9.77539 11.3027H60.2246C60.5266 11.3027 60.7715 11.5476 60.7715 11.8496V44.1152H9.22852Z" fill="#F9F7F8"/>
<path d="M5.12695 44.1152H64.873V52.3184H5.12695V44.1152Z" fill="#004651"/>
<path d="M45.7185 36.1134L24.3963 36.7752C23.8148 36.7752 23.1542 36.8764 22.773 36.4953C22.392 36.1143 22.1562 35.5878 22.1562 35.0063V17.5102C22.1562 16.3471 23.0991 15.4043 24.2621 15.4043H45.7361C46.8992 15.4043 47.842 16.3471 47.842 17.5102V35.0062C47.842 35.5471 47.6382 36.0403 47.3029 36.4133C46.9174 36.8423 46.3407 36.1134 45.7185 36.1134Z" fill="#26A6FE"/>
<path d="M45.7363 15.4043H41.6348C42.7978 15.4043 43.7406 16.3471 43.7406 17.5102V35.0062C43.7406 36.1693 42.7978 37.1121 41.6348 37.1121L45.7187 36.1134C46.8818 36.1134 47.8421 36.1693 47.8421 35.0062V17.5102C47.8422 16.3471 46.8994 15.4043 45.7363 15.4043Z" fill="#0593FC"/>
<path d="M47.3018 36.4116L41.1876 28.4945C40.7961 27.9875 40.037 27.9875 39.6454 28.4945L32.9902 37.1121H45.7475C46.3649 37.1121 46.9183 36.8407 47.3018 36.4116Z" fill="#C9F6B0"/>
<path d="M41.1871 28.4943C40.797 27.9892 40.035 27.9892 39.6449 28.4943L38.3652 30.1513L42.4513 35.4423C42.9683 36.1117 42.5095 37.1044 41.6638 37.1119C41.6577 37.1119 41.6515 37.1121 41.6454 37.1121H45.7469C46.3645 37.1121 46.9178 36.8407 47.3014 36.4115L41.1871 28.4943Z" fill="#9BE69D"/>
<path d="M30.5781 26.6644L22.709 36.4254C23.0921 36.8465 23.64 37.1122 24.2509 37.1122H40.5176L32.0949 26.6645C31.7034 26.1789 30.9694 26.1789 30.5781 26.6644Z" fill="#C9F6B0"/>
<path d="M32.0963 26.6644C31.705 26.1789 30.9709 26.1789 30.5795 26.6644L29.2871 28.2676L36.4174 37.112H40.519L32.0963 26.6644Z" fill="#9BE69D"/>
<path d="M36.6699 24.3804C37.9815 24.3804 39.0448 23.3066 39.0448 21.982C39.0448 20.6573 37.9815 19.5835 36.6699 19.5835C35.3582 19.5835 34.2949 20.6573 34.2949 21.982C34.2949 23.3066 35.3582 24.3804 36.6699 24.3804Z" fill="#FEE97D"/>
<path d="M36.6698 19.5835C36.2367 19.5835 35.832 19.7024 35.4824 19.907C36.1916 20.3218 36.6698 21.0946 36.6698 21.982C36.6698 22.8693 36.1916 23.642 35.4824 24.0569C35.832 24.2615 36.2368 24.3804 36.6698 24.3804C37.9815 24.3804 39.0448 23.3066 39.0448 21.982C39.0448 20.6573 37.9815 19.5835 36.6698 19.5835Z" fill="#F4DA6E"/>
<path d="M66.24 62.8457H50.0215C48.5113 62.8457 47.2871 61.6215 47.2871 60.1113V26.3418C47.2871 24.8316 48.5113 23.6074 50.0215 23.6074H66.24C67.7502 23.6074 68.9744 24.8316 68.9744 26.3418V60.1113C68.9744 61.6215 67.7502 62.8457 66.24 62.8457Z" fill="white"/>
<path d="M66.2396 23.6074H61.2539C62.7641 23.6074 63.9883 24.8316 63.9883 26.3418V60.1113C63.9883 61.6215 62.7641 62.8457 61.2539 62.8457H66.2396C67.7498 62.8457 68.974 61.6215 68.974 60.1113V26.3418C68.974 24.8316 67.7498 23.6074 66.2396 23.6074Z" fill="#EFEDEF"/>
<path d="M66.24 63.8711H50.0215C47.9483 63.8711 46.2617 62.1844 46.2617 60.1113V26.3418C46.2617 24.2687 47.9483 22.582 50.0215 22.582H66.24C68.3132 22.582 69.9998 24.2687 69.9998 26.3418V60.1113C69.9998 62.1844 68.3132 63.8711 66.24 63.8711ZM50.0215 24.6328C49.0791 24.6328 48.3125 25.3994 48.3125 26.3418V60.1113C48.3125 61.0537 49.0791 61.8203 50.0215 61.8203H66.24C67.1824 61.8203 67.949 61.0537 67.949 60.1113V26.3418C67.949 25.3994 67.1824 24.6328 66.24 24.6328H50.0215Z" fill="#03373A"/>
<path d="M60.8201 27.8457H55.4434C54.9148 27.8457 54.4863 27.4172 54.4863 26.8887V23.6074H61.7771V26.8887C61.7771 27.4172 61.3487 27.8457 60.8201 27.8457Z" fill="#03373A"/>
<path d="M63.885 49.3886L52.4134 49.3895C52.1003 49.3895 51.754 49.4474 51.5489 49.2421C51.3437 49.0369 51.2168 48.7535 51.2168 48.4404V39.0208C51.2168 38.3946 51.7244 37.887 52.3506 37.887H63.9118C64.538 37.887 65.0456 38.3946 65.0456 39.0208V48.4404C65.0456 48.7316 64.9358 48.9971 64.7554 49.198C64.5478 49.429 64.22 49.3886 63.885 49.3886Z" fill="#26A6FE"/>
<path d="M64.754 49.1971L61.4622 44.9346C61.2514 44.6618 60.8428 44.6618 60.632 44.9346L57.0488 49.5743H63.9172C64.2495 49.5743 64.5476 49.4282 64.754 49.1971Z" fill="#9BE69D"/>
<path d="M55.7523 43.9494L51.5156 49.2046C51.7218 49.4312 52.0168 49.5743 52.3458 49.5743H61.1034L56.5687 43.9494C56.3581 43.6881 55.963 43.6881 55.7523 43.9494Z" fill="#C9F6B0"/>
<path d="M58.9941 42.4062C59.5604 42.4062 60.0195 41.9472 60.0195 41.3809C60.0195 40.8146 59.5604 40.3555 58.9941 40.3555C58.4278 40.3555 57.9688 40.8146 57.9688 41.3809C57.9688 41.9472 58.4278 42.4062 58.9941 42.4062Z" fill="#FEE97D"/>
<path d="M65.0458 54.7012H51.2168C50.6504 54.7012 50.1914 54.2422 50.1914 53.6758C50.1914 53.1094 50.6504 52.6504 51.2168 52.6504H65.0456C65.6121 52.6504 66.071 53.1094 66.071 53.6758C66.071 54.2422 65.612 54.7012 65.0458 54.7012Z" fill="#E5E1E5"/>
<path d="M60.9441 58.8027H55.3184C54.7519 58.8027 54.293 58.3438 54.293 57.7773C54.293 57.2109 54.7519 56.752 55.3184 56.752H60.9441C61.5105 56.752 61.9695 57.2109 61.9695 57.7773C61.9695 58.3438 61.5103 58.8027 60.9441 58.8027Z" fill="#E5E1E5"/>
<path d="M22.7127 62.8457H5.12695C2.86166 62.8457 1.02539 61.0094 1.02539 58.7441V27.709C1.02539 25.4437 2.86166 23.6074 5.12695 23.6074H22.7127C24.978 23.6074 26.8142 25.4437 26.8142 27.709V58.7441C26.8142 61.0094 24.9778 62.8457 22.7127 62.8457Z" fill="white"/>
<path d="M13.9199 28.7344C14.4862 28.7344 14.9453 28.2753 14.9453 27.709C14.9453 27.1427 14.4862 26.6836 13.9199 26.6836C13.3536 26.6836 12.8945 27.1427 12.8945 27.709C12.8945 28.2753 13.3536 28.7344 13.9199 28.7344Z" fill="#03373A"/>
<path d="M22.7124 23.6074H17.7578C20.0231 23.6074 21.8594 25.4437 21.8594 27.709V58.7441C21.8594 61.0094 20.0231 62.8457 17.7578 62.8457H22.7124C24.9775 62.8457 26.8139 61.0094 26.8139 58.7441V27.709C26.8139 25.4437 24.9775 23.6074 22.7124 23.6074Z" fill="#EFEDEF"/>
<path d="M22.7127 63.8711H5.12695C2.29988 63.8711 0 61.5712 0 58.7441V27.709C0 24.8819 2.29988 22.582 5.12695 22.582H22.7127C25.5397 22.582 27.8396 24.8819 27.8396 27.709V58.7441C27.8396 61.5712 25.5397 63.8711 22.7127 63.8711ZM5.12695 24.6328C3.43082 24.6328 2.05078 26.0129 2.05078 27.709V58.7441C2.05078 60.4403 3.43082 61.8203 5.12695 61.8203H22.7127C24.4088 61.8203 25.7888 60.4403 25.7888 58.7441V27.709C25.7888 26.0129 24.4088 24.6328 22.7127 24.6328H5.12695Z" fill="#03373A"/>
<path d="M19.6139 44.7131L8.27078 44.7338C7.9577 44.7338 7.54316 44.8415 7.33795 44.6364C7.13273 44.4312 7.00586 44.1478 7.00586 43.8347V34.4151C7.00586 33.7889 7.5135 33.2812 8.13967 33.2812H19.7009C20.3271 33.2812 20.8347 33.7889 20.8347 34.4151V43.8347C20.8347 44.1259 20.7249 44.3914 20.5444 44.5923C20.337 44.8232 19.9489 44.7131 19.6139 44.7131Z" fill="#26A6FE"/>
<path d="M20.5431 44.5914L17.2513 40.3289C17.0405 40.056 16.6318 40.056 16.421 40.3289L12.8379 44.9686H19.7062C20.0386 44.9686 20.3365 44.8225 20.5431 44.5914Z" fill="#9BE69D"/>
<path d="M11.5412 39.3435L7.30469 44.5986C7.51086 44.8253 7.8059 44.9683 8.13484 44.9683H16.8925L12.3578 39.3435C12.1471 39.0821 11.7519 39.0821 11.5412 39.3435Z" fill="#C9F6B0"/>
<path d="M14.7832 37.8005C15.3495 37.8005 15.8086 37.3415 15.8086 36.7751C15.8086 36.2088 15.3495 35.7498 14.7832 35.7498C14.2169 35.7498 13.7578 36.2088 13.7578 36.7751C13.7578 37.3415 14.2169 37.8005 14.7832 37.8005Z" fill="#FEE97D"/>
<path d="M20.8348 50.0955H7.00586C6.43943 50.0955 5.98047 49.6365 5.98047 49.0701C5.98047 48.5036 6.43943 48.0447 7.00586 48.0447H20.8347C21.4011 48.0447 21.8601 48.5036 21.8601 49.0701C21.8601 49.6365 21.4011 50.0955 20.8348 50.0955Z" fill="#E5E1E5"/>
<path d="M16.7333 54.197H11.1074C10.541 54.197 10.082 53.7381 10.082 53.1716C10.082 52.6052 10.541 52.1462 11.1074 52.1462H16.7331C17.2996 52.1462 17.7585 52.6052 17.7585 53.1716C17.7585 53.7381 17.2996 54.197 16.7333 54.197Z" fill="#E5E1E5"/>
</svg>
