<svg width="70" height="71" viewBox="0 0 70 71" fill="none" xmlns="http://www.w3.org/2000/svg">
<g clip-path="url(#clip0_253_1794)">
<path d="M0.688652 15.7429L0 16.9834V52.8437C0 55.2102 1.9183 57.1285 4.28477 57.1285H65.7152C68.0817 57.1285 70 55.2102 70 52.8437V16.9834L69.3113 15.7429H0.688652Z" fill="#D8EAFB"/>
<path d="M62.9839 15.7429V45.8277C62.9839 48.1942 61.0656 50.1125 58.6991 50.1125H0V52.8437C0 55.2102 1.9183 57.1285 4.28477 57.1285H65.7152C68.0817 57.1285 70 55.2102 70 52.8437V16.9834L69.3113 15.7429H62.9839Z" fill="#B3D8FB"/>
<path d="M65.7152 5.15869H4.28477C1.9183 5.15869 0 7.07699 0 9.44346V16.9835H70V9.44346C70 7.07699 68.0817 5.15869 65.7152 5.15869Z" fill="#1690FB"/>
<path d="M65.7156 5.15869H62.9844V16.9835H70.0004V9.44346C70.0004 7.07699 68.0821 5.15869 65.7156 5.15869Z" fill="#0571F9"/>
<path d="M7.48672 12.9932C8.54836 12.9932 9.40898 12.1326 9.40898 11.0709C9.40898 10.0093 8.54836 9.14868 7.48672 9.14868C6.42508 9.14868 5.56445 10.0093 5.56445 11.0709C5.56445 12.1326 6.42508 12.9932 7.48672 12.9932Z" fill="#B3D8FB"/>
<path d="M13.4008 12.9932C14.4624 12.9932 15.323 12.1326 15.323 11.0709C15.323 10.0093 14.4624 9.14868 13.4008 9.14868C12.3391 9.14868 11.4785 10.0093 11.4785 11.0709C11.4785 12.1326 12.3391 12.9932 13.4008 12.9932Z" fill="#B3D8FB"/>
<path d="M19.3129 12.9932C20.3745 12.9932 21.2352 12.1326 21.2352 11.0709C21.2352 10.0093 20.3745 9.14868 19.3129 9.14868C18.2513 9.14868 17.3906 10.0093 17.3906 11.0709C17.3906 12.1326 18.2513 12.9932 19.3129 12.9932Z" fill="#B3D8FB"/>
<path d="M34.9992 63.8474C46.1781 63.8474 55.2405 54.7851 55.2405 43.6061C55.2405 32.4271 46.1781 23.3647 34.9992 23.3647C23.8202 23.3647 14.7578 32.4271 14.7578 43.6061C14.7578 54.7851 23.8202 63.8474 34.9992 63.8474Z" fill="#FCEED9"/>
<path d="M46.5699 26.9971C48.8587 30.2765 50.2022 34.2648 50.2022 38.5673C50.2022 49.7462 41.1398 58.8087 29.9609 58.8087C25.6583 58.8087 21.6701 57.4651 18.3906 55.1763C22.0487 60.4177 28.1232 63.8474 34.9996 63.8474C46.1786 63.8474 55.241 54.785 55.241 43.6061C55.241 36.7297 51.8112 30.6553 46.5699 26.9971Z" fill="#FAD59A"/>
<path d="M46.0021 48.8507C44.042 52.9551 39.8527 55.7907 35.0009 55.7907C28.2716 55.7907 22.8164 50.3354 22.8164 43.6061C22.8164 36.8768 28.2716 31.4216 35.0009 31.4216C41.7302 31.4216 46.7608 47.2623 46.0021 48.8507Z" fill="#F9C301"/>
<path d="M35.0008 65.9136C22.7005 65.9136 12.6934 55.9066 12.6934 43.6063C12.6934 31.306 22.7004 21.2988 35.0008 21.2988C47.301 21.2988 57.3081 31.3058 57.3081 43.6063C57.3081 55.9066 47.3011 65.9136 35.0008 65.9136ZM35.0008 25.4309C24.9788 25.4309 16.8254 33.5844 16.8254 43.6063C16.8254 53.6282 24.9789 61.7817 35.0008 61.7817C45.0227 61.7817 53.1761 53.6282 53.1761 43.6063C53.1762 33.5844 45.0227 25.4309 35.0008 25.4309Z" fill="#7C8B96"/>
<path d="M49.5256 26.6912C52.8847 30.5969 54.9179 35.6741 54.9179 41.2178C54.9179 53.5181 44.9109 63.5251 32.6106 63.5251C27.0671 63.5251 21.9899 61.4918 18.084 58.1328C22.1782 62.8935 28.2423 65.9136 34.9992 65.9136C47.2994 65.9136 57.3065 55.9066 57.3065 43.6063C57.3064 36.8495 54.2862 30.7853 49.5256 26.6912Z" fill="#465961"/>
<path d="M46.0039 48.8457C46.4095 47.9701 45.1139 42.9135 42.7697 38.4712C42.7845 38.717 42.7932 38.9645 42.7932 39.214C42.7932 45.9433 37.338 51.3985 30.6087 51.3985C28.3712 51.3985 26.2749 50.7947 24.4727 49.7421C26.5856 53.3597 30.5091 55.7907 35.0008 55.7907C39.8543 55.7906 44.0448 52.9526 46.0039 48.8457Z" fill="#D4A806"/>
<path d="M35 31.4216V43.6061L46.0012 48.8507C46.7599 47.2623 47.1845 45.4838 47.1845 43.6061C47.1845 36.8768 41.7293 31.4216 35 31.4216Z" fill="#DD636E"/>
<path d="M41.1368 33.0781C42.1894 34.8802 42.7932 36.9765 42.7932 39.2141C42.7932 41.8367 41.9644 44.2658 40.5547 46.2538L46.0021 48.8508C46.7608 47.2624 47.1854 45.484 47.1854 43.6063C47.1853 39.1145 44.7544 35.1911 41.1368 33.0781Z" fill="#D82E3D"/>
<path d="M35.7083 45.246C35.0146 45.9397 33.8898 45.9397 33.1961 45.246C32.5024 44.5523 32.5024 43.4275 33.1961 42.7338C33.6609 42.269 39.7542 37.3038 43.7241 34.078C44.1487 33.7331 44.709 34.2934 44.3639 34.7179C41.1383 38.6879 36.1731 44.7812 35.7083 45.246Z" fill="#7C8B96"/>
<path d="M43.7239 34.078C42.3109 35.226 40.6291 36.5945 39.0276 37.9019C36.4353 41.0834 33.7399 44.3743 33.0801 45.1179C33.1163 45.1619 33.1546 45.2047 33.1957 45.2459C33.8895 45.9396 35.0142 45.9396 35.7079 45.2459C36.1728 44.781 41.138 38.6878 44.3637 34.7179C44.7088 34.2934 44.1486 33.7331 43.7239 34.078Z" fill="#465961"/>
<path d="M14.6344 25.2206H6.79867C6.22814 25.2206 5.76562 24.7583 5.76562 24.1876C5.76562 23.6171 6.22801 23.1545 6.79867 23.1545H14.6344C15.205 23.1545 15.6675 23.6169 15.6675 24.1876C15.6673 24.7583 15.205 25.2206 14.6344 25.2206Z" fill="#1690FB"/>
<path d="M11.3108 29.5593H6.79867C6.22814 29.5593 5.76562 29.0969 5.76562 28.5262C5.76562 27.9555 6.22801 27.4932 6.79867 27.4932H11.3108C11.8813 27.4932 12.3438 27.9555 12.3438 28.5262C12.3438 29.0969 11.8813 29.5593 11.3108 29.5593Z" fill="#1690FB"/>
<path d="M62.3169 28.0303C60.5988 28.0303 59.2012 26.6325 59.2012 24.9145C59.2012 23.1965 60.5988 21.7988 62.3169 21.7988C64.0349 21.7988 65.4327 23.1965 65.4327 24.9145C65.4327 26.6325 64.0349 28.0303 62.3169 28.0303ZM62.3169 23.8649C61.7381 23.8649 61.2671 24.3358 61.2671 24.9146C61.2671 25.4935 61.738 25.9645 62.3169 25.9645C62.8957 25.9645 63.3667 25.4937 63.3667 24.9146C63.3666 24.3358 62.8957 23.8649 62.3169 23.8649Z" fill="#1690FB"/>
<path d="M62.3169 36.1673C60.5988 36.1673 59.2012 34.7695 59.2012 33.0515C59.2012 31.3335 60.5988 29.9358 62.3169 29.9358C64.0349 29.9358 65.4327 31.3335 65.4327 33.0515C65.4327 34.7695 64.0349 36.1673 62.3169 36.1673ZM62.3169 32.0019C61.7381 32.0019 61.2671 32.4727 61.2671 33.0516C61.2671 33.6305 61.738 34.1015 62.3169 34.1015C62.8957 34.1015 63.3667 33.6306 63.3667 33.0516C63.3666 32.4727 62.8957 32.0019 62.3169 32.0019Z" fill="#1690FB"/>
</g>
<defs>
<clipPath id="clip0_253_1794">
<rect width="70" height="70" fill="white" transform="translate(0 0.536133)"/>
</clipPath>
</defs>
</svg>
