<svg width="70" height="71" viewBox="0 0 70 71" fill="none" xmlns="http://www.w3.org/2000/svg">
<path d="M7.65624 2.72314H62.3438C65.3734 2.72314 67.8125 5.1622 67.8125 8.19189V15.3686C67.8125 18.3983 65.3734 20.8373 62.3438 20.8373H7.65624C4.62656 20.8373 2.1875 18.3983 2.1875 15.3686V8.19189C2.1875 5.1622 4.62656 2.72314 7.65624 2.72314Z" fill="url(#paint0_linear_253_1851)"/>
<path d="M3.12695 16.2219V16.7667H4.22071V16.2219H3.12695ZM5.86346 16.2219V16.7667H6.95722V16.2219H5.86346ZM8.59677 16.2219V16.7667H9.69053V16.2219H8.59677ZM11.3301 16.2219V16.7667H12.4238V16.2219H11.3301ZM14.0666 16.2219V16.7667H15.1603V16.2219H14.0666ZM16.7999 16.2219V16.7667H17.8937V16.2219H16.7999ZM19.5332 16.2219V16.7667H20.627V16.2219H19.5332ZM22.2697 16.2219V16.7667H23.3635V16.2219H22.2697ZM25.003 16.2219V16.7667H26.0968V16.2219H25.003ZM27.7363 16.2219V16.7667H28.8301V16.2219H27.7363ZM30.4728 16.2219V16.7667H31.5666V16.2219H30.4728ZM33.2061 16.2219V16.7667H34.2999V16.2219H33.2061ZM35.9395 16.2219V16.7667H37.0332V16.2219H35.9395ZM38.676 16.2219V16.7667H39.7697V16.2219H38.676ZM41.4093 16.2219V16.7667H42.503V16.2219H41.4093ZM44.1426 16.2219V16.7667H45.2363V16.2219H44.1426ZM46.8791 16.2219V16.7667H47.9696V16.2219H46.8791ZM49.6124 16.2219V16.7667H50.7062V16.2219H49.6124ZM52.3457 16.2219V16.7667H53.4395V16.2219H52.3457ZM55.078 16.2219V16.7667H56.1728V16.2219H55.078ZM57.5752 16.2219V16.7667H58.669V16.2219H57.5752ZM60.3117 16.2219V16.7667H61.4055V16.2219H60.3117ZM63.045 16.2219V16.7667H64.1388V16.2219H63.045ZM65.7783 16.2219V16.7667H66.8721V16.2219H65.7783Z" fill="#024292"/>
<path d="M4.92453 31.1846C3.41381 31.1861 2.18812 29.9622 2.1875 28.4515C2.18833 26.9408 3.41381 25.717 4.92453 25.7185H65.223C66.7321 25.7193 67.9553 26.9424 67.9559 28.4515C67.9553 29.9607 66.7321 31.1838 65.223 31.1846H4.92453Z" fill="url(#paint1_linear_253_1851)"/>
<path d="M4.92257 44.2998C3.41186 44.2983 2.18617 45.5222 2.18555 47.0329C2.18637 48.5435 3.41186 49.7674 4.92257 49.7659H65.0803C66.5894 49.7651 67.8126 48.542 67.8132 47.0329C67.8127 45.5237 66.5894 44.3006 65.0803 44.2998H4.92257Z" fill="url(#paint2_linear_253_1851)"/>
<path d="M4.92257 53.5906C3.41186 53.5891 2.18617 54.813 2.18555 56.3236C2.18637 57.8343 3.41186 59.0581 4.92257 59.0567H65.0803C66.5894 59.0561 67.8126 57.8327 67.8132 56.3236C67.8127 54.8145 66.5894 53.5913 65.0803 53.5906H4.92257Z" fill="url(#paint3_linear_253_1851)"/>
<path d="M4.92257 62.8813C3.41186 62.8799 2.18617 64.1037 2.18555 65.6144C2.18637 67.1251 3.41186 68.3489 4.92257 68.3474H65.0803C66.5894 68.3469 67.8126 67.1235 67.8132 65.6144C67.8127 64.1053 66.5894 62.8821 65.0803 62.8813H4.92257Z" fill="url(#paint4_linear_253_1851)"/>
<path d="M4.92453 35.0093C3.41381 35.0078 2.18812 36.2317 2.1875 37.7423C2.18833 39.253 3.41381 40.4768 4.92453 40.4754H65.223C66.7321 40.4746 67.9553 39.2514 67.9559 37.7423C67.9553 36.2332 66.7321 35.01 65.223 35.0093H4.92453Z" fill="url(#paint5_linear_253_1851)"/>
<defs>
<linearGradient id="paint0_linear_253_1851" x1="33.6062" y1="21.1579" x2="33.6062" y2="2.59692" gradientUnits="userSpaceOnUse">
<stop stop-color="#0056FF"/>
<stop offset="1" stop-color="#0AB0F2"/>
</linearGradient>
<linearGradient id="paint1_linear_253_1851" x1="44.9867" y1="31.0626" x2="44.9867" y2="25.5997" gradientUnits="userSpaceOnUse">
<stop stop-color="#FF7E3F"/>
<stop offset="1" stop-color="#FFBE3F"/>
</linearGradient>
<linearGradient id="paint2_linear_253_1851" x1="10.1232" y1="44.4232" x2="10.1232" y2="49.8861" gradientUnits="userSpaceOnUse">
<stop stop-color="#F5F8FF"/>
<stop offset="1" stop-color="#A0C9FF"/>
</linearGradient>
<linearGradient id="paint3_linear_253_1851" x1="10.1232" y1="53.7121" x2="10.1232" y2="59.175" gradientUnits="userSpaceOnUse">
<stop stop-color="#F5F8FF"/>
<stop offset="1" stop-color="#A0C9FF"/>
</linearGradient>
<linearGradient id="paint4_linear_253_1851" x1="10.1232" y1="63.003" x2="10.1232" y2="68.4659" gradientUnits="userSpaceOnUse">
<stop stop-color="#F5F8FF"/>
<stop offset="1" stop-color="#A0C9FF"/>
</linearGradient>
<linearGradient id="paint5_linear_253_1851" x1="44.9867" y1="35.1325" x2="44.9867" y2="40.5954" gradientUnits="userSpaceOnUse">
<stop stop-color="#F5F8FF"/>
<stop offset="1" stop-color="#A0C9FF"/>
</linearGradient>
</defs>
</svg>
