<svg width="40" height="41" viewBox="0 0 40 41" fill="none" xmlns="http://www.w3.org/2000/svg">
<g clip-path="url(#clip0_913_3525)">
<path d="M14.9433 7.36328L16.1719 4.19185C16.3791 3.65489 16.7436 3.19303 17.2178 2.86674C17.6919 2.54046 18.2535 2.36498 18.829 2.36328H21.1719C21.7474 2.36498 22.3091 2.54046 22.7832 2.86674C23.2573 3.19303 23.6218 3.65489 23.829 4.19185L25.0576 7.36328L29.229 9.76328L32.6005 9.249C33.1618 9.1728 33.7332 9.26521 34.2419 9.51449C34.7507 9.76377 35.1738 10.1587 35.4576 10.649L36.6005 12.649C36.8933 13.1471 37.0282 13.7224 36.9874 14.2988C36.9466 14.8752 36.732 15.4257 36.3719 15.8776L34.2862 18.5347V23.3347L36.429 25.9919C36.7892 26.4438 37.0038 26.9942 37.0446 27.5707C37.0854 28.1471 36.9505 28.7223 36.6576 29.2204L35.5148 31.2204C35.231 31.7108 34.8078 32.1056 34.2991 32.3549C33.7904 32.6042 33.219 32.6966 32.6576 32.6204L29.2862 32.1061L25.1148 34.5061L23.8862 37.6776C23.679 38.2145 23.3145 38.6764 22.8403 39.0027C22.3662 39.329 21.8046 39.5044 21.229 39.5061H18.829C18.2535 39.5044 17.6919 39.329 17.2178 39.0027C16.7436 38.6764 16.3791 38.2145 16.1719 37.6776L14.9433 34.5061L10.7719 32.1061L7.40047 32.6204C6.83909 32.6966 6.26773 32.6042 5.75899 32.3549C5.25025 32.1056 4.82711 31.7108 4.54333 31.2204L3.40047 29.2204C3.10762 28.7223 2.97269 28.1471 3.0135 27.5707C3.0543 26.9942 3.26893 26.4438 3.62904 25.9919L5.71475 23.3347V18.5347L3.5719 15.8776C3.21178 15.4257 2.99716 14.8752 2.95635 14.2988C2.91555 13.7224 3.05047 13.1471 3.34333 12.649L4.48618 10.649C4.76996 10.1587 5.19311 9.76377 5.70185 9.51449C6.21058 9.26521 6.78195 9.1728 7.34333 9.249L10.7148 9.76328L14.9433 7.36328Z" stroke="#BFF747" stroke-width="1.5" stroke-linecap="round" stroke-linejoin="round"/>
<path d="M20.0011 29.5061C24.735 29.5061 28.5725 25.6686 28.5725 20.9347C28.5725 16.2008 24.735 12.3633 20.0011 12.3633C15.2672 12.3633 11.4297 16.2008 11.4297 20.9347C11.4297 25.6686 15.2672 29.5061 20.0011 29.5061Z" stroke="#BFF747" stroke-width="1.5" stroke-linecap="round" stroke-linejoin="round"/>
<path d="M20 12.3633V20.9347H28.5714" stroke="#BFF747" stroke-width="1.5" stroke-linecap="round" stroke-linejoin="round"/>
<path d="M20.0025 20.9336L13.9453 26.9907" stroke="#BFF747" stroke-width="1.5" stroke-linecap="round" stroke-linejoin="round"/>
</g>
<defs>
<clipPath id="clip0_913_3525">
<rect width="40" height="40" fill="white" transform="translate(0 0.933594)"/>
</clipPath>
</defs>
</svg>
