<svg width="41" height="41" viewBox="0 0 41 41" fill="none" xmlns="http://www.w3.org/2000/svg">
<g clip-path="url(#clip0_1202_86)">
<path d="M20.8488 39.3206C31.1055 39.3206 39.4202 31.0059 39.4202 20.7492C39.4202 10.4924 31.1055 2.17773 20.8488 2.17773C10.5921 2.17773 2.27734 10.4924 2.27734 20.7492C2.27734 31.0059 10.5921 39.3206 20.8488 39.3206Z" stroke="#BFF747" stroke-width="1.5" stroke-linecap="round" stroke-linejoin="round"/>
<path d="M20.8479 2.17773C20.8479 2.17773 9.21937 12.4349 20.8479 20.7492C30.8479 27.892 20.8479 39.3206 20.8479 39.3206" stroke="#BFF747" stroke-width="1.5" stroke-linecap="round" stroke-linejoin="round"/>
<path d="M26.5642 16.4643C28.1421 16.4643 29.4213 15.1851 29.4213 13.6071C29.4213 12.0292 28.1421 10.75 26.5642 10.75C24.9862 10.75 23.707 12.0292 23.707 13.6071C23.707 15.1851 24.9862 16.4643 26.5642 16.4643Z" stroke="#BFF747" stroke-width="1.5" stroke-linecap="round" stroke-linejoin="round"/>
<path d="M15.1345 30.7494C16.7124 30.7494 17.9916 29.4703 17.9916 27.8923C17.9916 26.3143 16.7124 25.0352 15.1345 25.0352C13.5565 25.0352 12.2773 26.3143 12.2773 27.8923C12.2773 29.4703 13.5565 30.7494 15.1345 30.7494Z" stroke="#BFF747" stroke-width="1.5" stroke-linecap="round" stroke-linejoin="round"/>
</g>
<defs>
<clipPath id="clip0_1202_86">
<rect width="40" height="40" fill="white" transform="translate(0.847656 0.75)"/>
</clipPath>
</defs>
</svg>
