<svg width="40" height="40" viewBox="0 0 40 40" fill="none" xmlns="http://www.w3.org/2000/svg">
<path d="M19.9989 25.7146C23.5493 25.7146 26.4275 22.8364 26.4275 19.286C26.4275 15.7356 23.5493 12.8574 19.9989 12.8574C16.4485 12.8574 13.5703 15.7356 13.5703 19.286C13.5703 22.8364 16.4485 25.7146 19.9989 25.7146Z" stroke="#BFF747" stroke-width="1.5" stroke-linecap="round" stroke-linejoin="round"/>
<path d="M31.4275 38.5705C30.3458 36.4718 28.7072 34.7115 26.6913 33.4826C24.6753 32.2536 22.3599 31.6035 19.9989 31.6035C17.6379 31.6035 15.3225 32.2536 13.3065 33.4826C11.2906 34.7115 9.65194 36.4718 8.57031 38.5705" stroke="#BFF747" stroke-width="1.5" stroke-linecap="round" stroke-linejoin="round"/>
<path d="M34.2864 30.1714C36.3139 27.5268 37.561 24.3677 37.8867 21.0513C38.2123 17.7349 37.6034 14.3935 36.1289 11.4051C34.6545 8.4167 32.3732 5.9005 29.5432 4.14108C26.7132 2.38166 23.4473 1.44922 20.115 1.44922C16.7826 1.44922 13.5167 2.38166 10.6867 4.14108C7.8567 5.9005 5.57545 8.4167 4.10098 11.4051C2.62651 14.3935 2.01766 17.7349 2.34328 21.0513C2.6689 24.3677 3.916 27.5268 5.94354 30.1714" stroke="#BFF747" stroke-width="1.5" stroke-linecap="round" stroke-linejoin="round"/>
</svg>
