<svg width="68" height="68" viewBox="0 0 68 68" fill="none" xmlns="http://www.w3.org/2000/svg">
<g clip-path="url(#clip0_134_111)">
<path d="M66.5457 13.6971C65.2667 7.92244 59.6687 2.63251 53.878 1.50892C50.3505 0.803685 40.5091 -0.0675646 34 0.00415413C27.4909 -0.0675646 17.6495 0.803685 14.122 1.50892C8.33133 2.63251 2.73328 7.92244 1.4543 13.6971C0.726484 17.2034 0.010625 21.974 0 28.4858C0.010625 34.9976 0.726484 39.7669 1.4543 43.2731C2.73328 49.0478 8.33133 54.3377 14.122 55.4613C16.0265 55.8425 19.7718 56.2715 23.8398 56.5743C24.3007 57.2981 24.8001 58.0685 25.3406 58.8852C27.4988 62.1538 29.151 64.4315 30.4021 66.0186C32.4846 68.6602 35.5167 68.6602 37.5992 66.0186C38.8503 64.4315 40.5012 62.1538 42.6607 58.8852C43.2012 58.0671 43.6993 57.2981 44.1615 56.5743C48.2295 56.2715 51.9748 55.8425 53.8807 55.4613C59.6713 54.3377 65.2694 49.0478 66.5484 43.2731C67.2762 39.7669 67.992 34.9976 68.0027 28.4858C67.992 21.974 67.2762 17.2047 66.5484 13.6985L66.5457 13.6971ZM37.7546 48.2284C37.6112 49.0372 36.878 49.7703 36.0692 49.9138C35.5791 49.9948 34.9111 50.0718 33.9987 50.0731C33.0876 50.0731 32.4195 49.9961 31.9281 49.9138C31.1193 49.7703 30.3862 49.0372 30.2427 48.2284C30.1617 47.7383 30.0847 47.0702 30.0834 46.1578C30.0834 45.2467 30.1604 44.5787 30.2427 44.0873C30.3862 43.2785 31.1193 42.5453 31.9281 42.4019C32.4182 42.3209 33.0863 42.2438 33.9987 42.2425C34.9098 42.2425 35.5778 42.3195 36.0692 42.4019C36.878 42.5453 37.6112 43.2785 37.7546 44.0873C37.8356 44.5774 37.9127 45.2454 37.914 46.1578C37.914 47.0689 37.837 47.737 37.7546 48.2284ZM45.8402 26.475C44.8149 27.9253 43.2783 29.2495 41.0045 30.64C38.1265 32.4144 37.6656 33.1435 37.6656 34.5713V35.1357C37.6656 37.1598 36.0188 38.8067 33.9947 38.8067C31.9706 38.8067 30.3238 37.1598 30.3238 35.1357V33.8275C30.3238 32.1435 30.7448 30.7144 31.6107 29.4593C32.4501 28.2427 33.7078 27.1617 35.5738 26.0527C39.0123 24.0299 39.6419 22.8944 39.6419 21.387C39.6419 19.4931 38.0282 18.2685 35.5327 18.2685C32.7967 18.2685 31.0157 19.5117 30.2387 21.9647C29.7261 23.5824 28.228 24.6688 26.512 24.6688C26.4164 24.6688 26.3208 24.6648 26.2252 24.6581C25.0139 24.5705 23.9288 23.9423 23.2488 22.9342C22.5755 21.9368 22.3988 20.711 22.7641 19.5701C23.6008 16.9617 25.2052 14.7915 27.4032 13.2934C29.6291 11.7767 32.4408 10.9758 35.5313 10.9758C38.6219 10.9758 41.7204 11.9998 43.9198 13.8592C46.1829 15.773 47.43 18.4106 47.43 21.2887C47.43 23.2649 46.9107 24.9623 45.8402 26.475Z" fill="black"/>
</g>
<defs>
<clipPath id="clip0_134_111">
<rect width="68" height="68" fill="white"/>
</clipPath>
</defs>
</svg>
